Coordinates
version=1
nRows=11
nColumns=63
inDegrees=yes

Units are S.I. units (second, meters, Newtons, ...)
If the header above contains a line with 'inDegrees', this indicates whether rotational values are in degrees (yes) or radians (no).

endheader
time	pelvis_tilt	pelvis_list	pelvis_rotation	pelvis_tx	pelvis_ty	pelvis_tz	hip_flexion_r	hip_adduction_r	hip_rotation_r	knee_angle_r	knee_angle_r_beta	ankle_angle_r	subtalar_angle_r	mtp_angle_r	hip_flexion_l	hip_adduction_l	hip_rotation_l	knee_angle_l	knee_angle_l_beta	ankle_angle_l	subtalar_angle_l	mtp_angle_l	L5_S1_Flex_Ext	L5_S1_Lat_Bending	L5_S1_axial_rotation	L4_L5_Flex_Ext	L4_L5_Lat_Bending	L4_L5_axial_rotation	L3_L4_Flex_Ext	L3_L4_Lat_Bending	L3_L4_axial_rotation	L2_L3_Flex_Ext	L2_L3_Lat_Bending	L2_L3_axial_rotation	L1_L2_Flex_Ext	L1_L2_Lat_Bending	L1_L2_axial_rotation	L1_T12_Flex_Ext	L1_T12_Lat_Bending	L1_T12_axial_rotation	Abs_r3	Abs_r2	Abs_r1	Abs_t1	Abs_t2	neck_flexion	neck_bending	neck_rotation	arm_flex_r	arm_add_r	arm_rot_r	elbow_flex_r	pro_sup_r	wrist_flex_r	wrist_dev_r	arm_flex_l	arm_add_l	arm_rot_l	elbow_flex_l	pro_sup_l	wrist_flex_l	wrist_dev_l
7.326531	-7.212512	-5.214234	90.725513	0.210117	0.945136	0.631283	-1.662907	-2.012154	-5.151471	5.327829	0.092988	28.564857	3.691394	0.000000	-1.871542	2.518925	3.851874	3.795239	0.066239	25.183921	2.015445	0.000000	-0.633978	-0.226964	0.186211	-1.177361	-0.301862	0.197849	-1.041563	-0.551840	0.197849	-0.724574	-0.551840	0.162935	-0.588712	-0.462824	0.151296	-0.362255	-0.351567	0.139658	-4.528444	-2.567459	1.035649	0.000000	0.000000	22.479302	-5.598049	-2.231725	8.329006	-10.379572	143.286745	6.961146	4.258338	-0.612152	-9.973859	12.647312	-10.021595	171.398951	2.818244	6.631200	-1.709180	-3.410934
7.346939	-7.177064	-5.346315	90.597340	0.210290	0.945752	0.632796	-1.744922	-1.947163	-4.604085	4.558508	0.079561	27.768441	3.273523	0.000000	-1.767347	2.448326	3.716360	3.486436	0.060850	24.789438	2.371413	0.000000	-0.611159	-0.224150	0.149031	-1.134983	-0.298119	0.158345	-1.004073	-0.544997	0.158345	-0.698493	-0.544997	0.130402	-0.567522	-0.457086	0.121087	-0.349216	-0.347208	0.111773	-4.365446	-2.535625	0.828864	0.000000	0.000000	22.462556	-5.460440	-1.842301	8.357807	-10.305295	144.519721	6.276268	4.186713	-0.457224	-10.004362	12.630384	-10.083910	171.424099	2.693818	6.902700	-1.871949	-3.295568
7.367347	-7.145921	-5.490594	90.512988	0.210419	0.946315	0.634473	-1.755451	-1.883557	-3.999401	3.890859	0.067908	27.000621	2.682867	0.000000	-1.596124	2.373779	3.352222	3.258775	0.056876	24.530496	3.023556	0.000000	-0.588291	-0.221539	0.105588	-1.092515	-0.294647	0.112187	-0.966503	-0.538650	0.112187	-0.672358	-0.538650	0.092389	-0.546287	-0.451762	0.085790	-0.336149	-0.343164	0.079191	-4.202103	-2.506092	0.587249	0.000000	0.000000	22.482230	-5.282961	-1.487892	8.412840	-10.237307	145.565980	5.667499	4.022267	-0.264129	-10.014051	12.602068	-10.145733	171.661226	2.519692	6.903169	-2.055451	-3.222689
7.387755	-7.113406	-5.633311	90.490988	0.210449	0.946814	0.636217	-1.732917	-1.814653	-3.188975	3.298517	0.057570	26.213617	1.681606	0.000000	-1.374107	2.290842	2.776880	3.122703	0.054501	24.419879	3.970598	0.000000	-0.566193	-0.217889	0.051320	-1.051478	-0.289793	0.054528	-0.930199	-0.529776	0.054528	-0.647102	-0.529776	0.044905	-0.525767	-0.444320	0.041698	-0.323523	-0.337511	0.038490	-4.044262	-2.464809	0.285427	0.000000	0.000000	22.544808	-5.073766	-1.162112	8.492016	-10.199511	146.348014	5.172747	3.911845	-0.098173	-10.033107	12.549574	-10.215135	171.657969	2.354688	6.938487	-2.314089	-3.226153
7.408163	-7.096321	-5.762021	90.500274	0.210388	0.947233	0.637921	-1.683645	-1.772843	-2.456857	2.813771	0.049110	25.528510	0.722767	0.000000	-1.155014	2.235200	2.180449	3.011833	0.052566	24.387233	4.926061	0.000000	-0.546062	-0.214751	-0.007821	-1.014091	-0.285619	-0.008310	-0.897125	-0.522146	-0.008310	-0.624094	-0.522146	-0.006843	-0.507073	-0.437920	-0.006354	-0.312020	-0.332649	-0.005866	-3.900465	-2.429307	-0.043497	0.000000	0.000000	22.651458	-4.833257	-0.851275	8.606329	-10.193373	146.792920	4.826698	3.916715	0.045124	-10.064429	12.456346	-10.281186	171.590564	2.161352	6.971196	-2.591920	-3.274306
7.428571	-7.085524	-5.870468	90.555286	0.210214	0.947563	0.639531	-1.629777	-1.747356	-1.794182	2.412413	0.042105	24.947028	-0.216537	0.000000	-0.945754	2.200671	1.649199	2.934229	0.051212	24.419324	5.793394	0.000000	-0.529760	-0.210952	-0.073414	-0.983818	-0.280567	-0.078002	-0.870343	-0.512910	-0.078002	-0.605463	-0.512910	-0.064237	-0.491936	-0.430174	-0.059649	-0.302705	-0.326765	-0.055060	-3.784026	-2.386337	-0.408305	0.000000	0.000000	22.805871	-4.580334	-0.557124	8.757771	-10.212853	147.109662	4.608973	3.962726	0.131581	-10.133673	12.329499	-10.341019	171.493858	1.961881	6.943415	-2.886404	-3.356651
7.448980	-7.069314	-5.961666	90.668167	0.209920	0.947784	0.641037	-1.569797	-1.724044	-1.300072	2.088118	0.036445	24.504507	-1.016871	0.000000	-0.727874	2.158238	0.937769	2.927837	0.051100	24.580564	6.921963	0.000000	-0.518590	-0.205102	-0.146989	-0.963073	-0.272785	-0.156176	-0.851991	-0.498684	-0.156176	-0.592696	-0.498684	-0.128616	-0.481562	-0.418243	-0.119429	-0.296322	-0.317703	-0.110242	-3.704234	-2.320152	-0.817511	0.000000	0.000000	23.034143	-4.349062	-0.269985	8.953488	-10.284608	146.976039	4.582914	4.273522	0.117016	-10.201796	12.179094	-10.392146	171.239302	1.775959	6.965308	-3.190054	-3.453927
7.469388	-7.039605	-6.031905	90.819584	0.209511	0.947884	0.642359	-1.519505	-1.694527	-0.953536	1.814905	0.031676	24.203899	-1.665870	0.000000	-0.540818	2.123971	0.499876	2.928746	0.051116	24.737612	7.672358	0.000000	-0.512423	-0.196078	-0.223930	-0.951621	-0.260784	-0.237926	-0.841860	-0.476745	-0.237926	-0.585648	-0.476745	-0.195939	-0.475836	-0.399843	-0.181943	-0.292799	-0.303725	-0.167948	-3.660187	-2.218076	-1.245434	0.000000	0.000000	23.323524	-4.149404	0.015590	9.192926	-10.345161	147.291242	4.606239	4.359881	0.075167	-10.313035	12.017332	-10.424153	170.961573	1.631828	6.897186	-3.460180	-3.546266
7.489796	-6.997654	-6.077520	90.999836	0.209039	0.947867	0.643471	-1.485896	-1.650725	-0.692651	1.583136	0.027631	24.035564	-2.229714	0.000000	-0.379182	2.080690	0.025393	2.962973	0.051714	24.963633	8.460645	0.000000	-0.511432	-0.184530	-0.301068	-0.949780	-0.245425	-0.319885	-0.840231	-0.448667	-0.319885	-0.584515	-0.448667	-0.263435	-0.474915	-0.376294	-0.244618	-0.292232	-0.285837	-0.225801	-3.653105	-2.087442	-1.674451	0.000000	0.000000	23.667657	-3.988601	0.295394	9.446003	-10.431901	147.369457	4.769334	4.475070	-0.011430	-10.389734	11.852463	-10.446589	170.476843	1.559899	6.845387	-3.685412	-3.626119
7.510204	-6.944829	-6.096450	91.213606	0.208523	0.947747	0.644313	-1.487899	-1.593662	-0.555830	1.367944	0.023875	23.998173	-2.644086	0.000000	-0.259941	2.028748	-0.400458	3.003202	0.052416	25.225822	9.199648	0.000000	-0.514342	-0.171042	-0.377031	-0.955185	-0.227486	-0.400595	-0.845013	-0.415872	-0.400595	-0.587842	-0.415872	-0.329902	-0.477618	-0.348789	-0.306338	-0.293895	-0.264944	-0.282773	-3.673896	-1.934863	-2.096933	0.000000	0.000000	24.042039	-3.852745	0.558409	9.676536	-10.543146	147.166129	5.060024	4.472200	-0.068007	-10.445007	11.681761	-10.461888	169.887415	1.553202	6.722376	-3.849913	-3.703964
7.530612	-6.887572	-6.102593	91.439364	0.208021	0.947540	0.644912	-1.496315	-1.530699	-0.578487	1.190554	0.020779	24.092834	-2.841864	0.000000	-0.156139	1.979390	-0.669778	3.073516	0.053643	25.499949	9.699964	0.000000	-0.517983	-0.157060	-0.449571	-0.961946	-0.208890	-0.477669	-0.850994	-0.381875	-0.477669	-0.592003	-0.381875	-0.393375	-0.480999	-0.320277	-0.365277	-0.295975	-0.243286	-0.337178	-3.699900	-1.776693	-2.500380	0.000000	0.000000	24.411272	-3.720340	0.800473	9.862771	-10.689423	146.375212	5.506793	4.510727	-0.099209	-10.429992	11.527362	-10.485057	169.019882	1.661859	6.726812	-3.976574	-3.772342
